<svg viewBox="0 0 58.33 87.5" xmlns="http://www.w3.org/2000/svg" xmlns:xlink="http://www.w3.org/1999/xlink"><linearGradient id="a" gradientTransform="matrix(1 0 0 -1 0 90)" gradientUnits="userSpaceOnUse" x1="11.98" x2="25.96" y1="93.71" y2="55.28"><stop offset="0" stop-color="#f44f5a"/><stop offset=".44" stop-color="#ee3d4a"/><stop offset="1" stop-color="#e52030"/></linearGradient><linearGradient id="b" gradientTransform="matrix(1 0 0 -1 0 90)" gradientUnits="userSpaceOnUse" x1="10.58" x2="24.49" y1="65.51" y2="27.31"><stop offset="0" stop-color="#ae4cd5"/><stop offset="1" stop-color="#9331bf"/></linearGradient><linearGradient id="c" gradientTransform="matrix(1 0 0 -1 0 90)" gradientUnits="userSpaceOnUse" x1="8.85" x2="23.46" y1="41.09" y2=".96"><stop offset="0" stop-color="#33c481"/><stop offset="1" stop-color="#21a366"/></linearGradient><linearGradient id="d" gradientTransform="matrix(1 0 0 -1 0 90)" gradientUnits="userSpaceOnUse" x1="35.29" x2="49.08" y1="94.93" y2="57.04"><stop offset="0" stop-color="#f09ca2"/><stop offset="1" stop-color="#eb6773"/></linearGradient><linearGradient id="e" gradientTransform="matrix(1 0 0 -1 0 90)" gradientUnits="userSpaceOnUse" x1="37.82" x2="50.62" y1="64.81" y2="29.65"><stop offset="0" stop-color="#32bdef"/><stop offset="1" stop-color="#1ea2e4"/></linearGradient><path d="m32.17 29.42h-16.67a14.59 14.59 0 0 1 0-29.17h16.67z" fill="url(#a)" transform="translate(-.92 -.25)"/><path d="m30.08 58.58h-14.58a14.58 14.58 0 0 1 0-29.16h14.58z" fill="url(#b)" transform="translate(-.92 -.25)"/><path d="m15.5 87.75a14.59 14.59 0 0 1 0-29.17h14.58v14.59a14.58 14.58 0 0 1 -14.58 14.58z" fill="url(#c)" transform="translate(-.92 -.25)"/><path d="m44.67 29.42h-14.59v-29.17h14.59a14.59 14.59 0 0 1 0 29.17z" fill="url(#d)" transform="translate(-.92 -.25)"/><path d="m44.67 58.58a14.58 14.58 0 1 0 -14.59-14.58 14.58 14.58 0 0 0 14.59 14.58z" fill="url(#e)" transform="translate(-.92 -.25)"/></svg>